<svg width="222" height="421" viewBox="0 0 222 421" fill="none" xmlns="http://www.w3.org/2000/svg">
<path d="M133.001 0H88.6677V33.0945L87.0134 37.8677L1.65425 119.967L0 125.059V413.681L7.60954 421H214.39L222 413.681V123.786L219.022 118.376L135.317 37.8677L133.001 33.0945V0Z" fill="white"/>
<path d="M129.839 78H93.8927V97.3379L92.5514 100.127L23.3413 148.1L22 151.075L22 319.723L28.1699 324H195.83L202 319.723V150.331L199.586 147.17L131.717 100.127L129.839 97.3379V78Z" fill="#F5F5F5"/>
<path d="M124.091 181H99.7273V196.014L98.8182 198.18L51.9091 235.427L51 237.737L51 368.68L55.1818 372H168.818L173 368.68V237.159L171.364 234.705L125.364 198.18L124.091 196.014V181Z" fill="#BDBDBD"/>
<path d="M119.928 260H103.952V271.084L103.356 272.683L72.5961 300.179L72 301.884L72 398.549L74.7422 401H149.258L152 398.549V301.458L150.927 299.646L120.763 272.683L119.928 271.084V260Z" fill="#797979"/>
</svg>
