<svg width="1360" height="2" viewBox="0 0 1360 2" fill="none" xmlns="http://www.w3.org/2000/svg">
<rect width="1" height="2" fill="#FFD700"/>
<rect x="15" width="1" height="2" fill="#FFD700"/>
<rect x="30" width="1" height="2" fill="#FFD700"/>
<rect x="48" width="1" height="2" fill="#FFD700"/>
<rect x="66" width="1" height="2" fill="#FFD700"/>
<rect x="84" width="1" height="2" fill="#FFD700"/>
<rect x="102" width="1" height="2" fill="#FFD700"/>
<rect x="120" width="1" height="2" fill="#FFD700"/>
<rect x="138" width="1" height="2" fill="#FFD700"/>
<rect x="156" width="1" height="2" fill="#FFD700"/>
<rect x="174" width="1" height="2" fill="#FFD700"/>
<rect x="192" width="1" height="2" fill="#FFD700"/>
<rect x="210" width="1" height="2" fill="#FFD700"/>
<rect x="228" width="1" height="2" fill="#FFD700"/>
<rect x="246" width="1" height="2" fill="#FFD700"/>
<rect x="264" width="1" height="2" fill="#FFD700"/>
<rect x="282" width="1" height="2" fill="#FFD700"/>
<rect x="300" width="1" height="2" fill="#FFD700"/>
<rect x="318" width="1" height="2" fill="#FFD700"/>
<rect x="750" width="1" height="2" fill="#FFD700"/>
<rect x="336" width="1" height="2" fill="#FFD700"/>
<rect x="768" width="1" height="2" fill="#FFD700"/>
<rect x="354" width="1" height="2" fill="#FFD700"/>
<rect x="786" width="1" height="2" fill="#FFD700"/>
<rect x="372" width="1" height="2" fill="#FFD700"/>
<rect x="804" width="1" height="2" fill="#FFD700"/>
<rect x="390" width="1" height="2" fill="#FFD700"/>
<rect x="822" width="1" height="2" fill="#FFD700"/>
<rect x="408" width="1" height="2" fill="#FFD700"/>
<rect x="840" width="1" height="2" fill="#FFD700"/>
<rect x="1182" width="1" height="2" fill="#FFD700"/>
<rect x="426" width="1" height="2" fill="#FFD700"/>
<rect x="858" width="1" height="2" fill="#FFD700"/>
<rect x="1200" width="1" height="2" fill="#FFD700"/>
<rect x="444" width="1" height="2" fill="#FFD700"/>
<rect x="876" width="1" height="2" fill="#FFD700"/>
<rect x="1218" width="1" height="2" fill="#FFD700"/>
<rect x="462" width="1" height="2" fill="#FFD700"/>
<rect x="894" width="1" height="2" fill="#FFD700"/>
<rect x="1236" width="1" height="2" fill="#FFD700"/>
<rect x="480" width="1" height="2" fill="#FFD700"/>
<rect x="912" width="1" height="2" fill="#FFD700"/>
<rect x="1254" width="1" height="2" fill="#FFD700"/>
<rect x="498" width="1" height="2" fill="#FFD700"/>
<rect x="930" width="1" height="2" fill="#FFD700"/>
<rect x="1272" width="1" height="2" fill="#FFD700"/>
<rect x="516" width="1" height="2" fill="#FFD700"/>
<rect x="948" width="1" height="2" fill="#FFD700"/>
<rect x="1290" width="1" height="2" fill="#FFD700"/>
<rect x="534" width="1" height="2" fill="#FFD700"/>
<rect x="966" width="1" height="2" fill="#FFD700"/>
<rect x="1308" width="1" height="2" fill="#FFD700"/>
<rect x="552" width="1" height="2" fill="#FFD700"/>
<rect x="984" width="1" height="2" fill="#FFD700"/>
<rect x="1326" width="1" height="2" fill="#FFD700"/>
<rect x="570" width="1" height="2" fill="#FFD700"/>
<rect x="1002" width="1" height="2" fill="#FFD700"/>
<rect x="1344" width="1" height="2" fill="#FFD700"/>
<rect x="1359" width="1" height="2" fill="#FFD700"/>
<rect x="588" width="1" height="2" fill="#FFD700"/>
<rect x="1020" width="1" height="2" fill="#FFD700"/>
<rect x="606" width="1" height="2" fill="#FFD700"/>
<rect x="1038" width="1" height="2" fill="#FFD700"/>
<rect x="624" width="1" height="2" fill="#FFD700"/>
<rect x="1056" width="1" height="2" fill="#FFD700"/>
<rect x="642" width="1" height="2" fill="#FFD700"/>
<rect x="1074" width="1" height="2" fill="#FFD700"/>
<rect x="660" width="1" height="2" fill="#FFD700"/>
<rect x="1092" width="1" height="2" fill="#FFD700"/>
<rect x="678" width="1" height="2" fill="#FFD700"/>
<rect x="1110" width="1" height="2" fill="#FFD700"/>
<rect x="696" width="1" height="2" fill="#FFD700"/>
<rect x="1128" width="1" height="2" fill="#FFD700"/>
<rect x="714" width="1" height="2" fill="#FFD700"/>
<rect x="1146" width="1" height="2" fill="#FFD700"/>
<rect x="732" width="1" height="2" fill="#FFD700"/>
<rect x="1164" width="1" height="2" fill="#FFD700"/>
</svg>
